<svg width="1600" height="900" viewBox="0 0 1600 900" fill="none" xmlns="http://www.w3.org/2000/svg">
  <defs>
    <linearGradient id="bgAdmin" x1="142" y1="64" x2="1450" y2="884" gradientUnits="userSpaceOnUse">
      <stop stop-color="#08131F"/>
      <stop offset="0.54" stop-color="#13263C"/>
      <stop offset="1" stop-color="#21466F"/>
    </linearGradient>
    <radialGradient id="adminGlowLeft" cx="0" cy="0" r="1" gradientUnits="userSpaceOnUse" gradientTransform="translate(322 202) rotate(24.6) scale(528 378)">
      <stop stop-color="#F7AA2B" stop-opacity="0.24"/>
      <stop offset="1" stop-color="#F7AA2B" stop-opacity="0"/>
    </radialGradient>
    <radialGradient id="adminGlowRight" cx="0" cy="0" r="1" gradientUnits="userSpaceOnUse" gradientTransform="translate(1332 238) rotate(132.4) scale(498 390)">
      <stop stop-color="#5AD8FF" stop-opacity="0.38"/>
      <stop offset="1" stop-color="#5AD8FF" stop-opacity="0"/>
    </radialGradient>
    <linearGradient id="desk" x1="874" y1="222" x2="1318" y2="722" gradientUnits="userSpaceOnUse">
      <stop stop-color="#EAF2FB"/>
      <stop offset="1" stop-color="#BFD3E8"/>
    </linearGradient>
    <linearGradient id="person" x1="1106" y1="264" x2="1106" y2="678" gradientUnits="userSpaceOnUse">
      <stop stop-color="#FFB35B"/>
      <stop offset="1" stop-color="#E9772C"/>
    </linearGradient>
  </defs>

  <rect width="1600" height="900" rx="36" fill="url(#bgAdmin)"/>
  <rect width="1600" height="900" rx="36" fill="url(#adminGlowLeft)"/>
  <rect width="1600" height="900" rx="36" fill="url(#adminGlowRight)"/>

  <circle cx="1415" cy="700" r="8" fill="#F7AA2B" fill-opacity="0.7"/>
  <circle cx="166" cy="174" r="6" fill="#5AD8FF" fill-opacity="0.7"/>
  <circle cx="1470" cy="166" r="10" fill="#5AD8FF" fill-opacity="0.42"/>

  <rect x="106" y="110" width="388" height="142" rx="30" stroke="#F7AA2B" stroke-opacity="0.28"/>
  <rect x="106" y="280" width="258" height="76" rx="22" stroke="#5AD8FF" stroke-opacity="0.34"/>
  <rect x="106" y="382" width="334" height="228" rx="28" stroke="white" stroke-opacity="0.16"/>

  <text x="122" y="174" fill="#F7AA2B" font-family="Segoe UI, Arial, sans-serif" font-size="26" font-weight="700" letter-spacing="0.22em">SUPPORT &amp; GESTION</text>
  <text x="122" y="256" fill="#F4F7FB" font-family="Segoe UI, Arial, sans-serif" font-size="68" font-weight="700">Assistant(e)</text>
  <text x="122" y="334" fill="#F4F7FB" font-family="Segoe UI, Arial, sans-serif" font-size="68" font-weight="700">Administratif(ve)</text>
  <text x="122" y="410" fill="#C1D0E3" font-family="Segoe UI, Arial, sans-serif" font-size="28">Clients, devis, factures et coordination quotidienne</text>

  <rect x="122" y="474" width="132" height="52" rx="26" fill="#FF7C4D"/>
  <text x="155" y="508" fill="#FFF7EE" font-family="Segoe UI, Arial, sans-serif" font-size="24" font-weight="700">Clients</text>
  <rect x="270" y="474" width="118" height="52" rx="26" fill="#16273E" stroke="rgba(255,255,255,0.18)"/>
  <text x="306" y="508" fill="#FCE2AA" font-family="Segoe UI, Arial, sans-serif" font-size="24" font-weight="700">Devis</text>
  <rect x="404" y="474" width="134" height="52" rx="26" fill="#16273E" stroke="rgba(255,255,255,0.18)"/>
  <text x="438" y="508" fill="#C7F5FF" font-family="Segoe UI, Arial, sans-serif" font-size="24" font-weight="700">Factures</text>

  <rect x="784" y="212" width="570" height="492" rx="42" fill="url(#desk)"/>
  <rect x="842" y="280" width="310" height="274" rx="28" fill="#F7FAFE"/>
  <rect x="864" y="310" width="266" height="18" rx="9" fill="#D6E4F1"/>
  <rect x="864" y="350" width="226" height="18" rx="9" fill="#9CCBFF"/>
  <rect x="864" y="390" width="246" height="18" rx="9" fill="#D6E4F1"/>
  <rect x="864" y="430" width="204" height="18" rx="9" fill="#D6E4F1"/>
  <rect x="864" y="470" width="180" height="18" rx="9" fill="#FFDCA4"/>

  <rect x="968" y="242" width="236" height="48" rx="24" fill="#15283F"/>
  <text x="1016" y="273" fill="#F4F7FB" font-family="Segoe UI, Arial, sans-serif" font-size="24" font-weight="700">Suivi des clients</text>

  <rect x="1036" y="530" width="194" height="118" rx="24" fill="#162A43"/>
  <path d="M1072 562H1192" stroke="#67E4FF" stroke-width="13" stroke-linecap="round"/>
  <path d="M1072 596H1174" stroke="white" stroke-opacity="0.82" stroke-width="13" stroke-linecap="round"/>
  <path d="M1072 630H1140" stroke="#F7AA2B" stroke-width="13" stroke-linecap="round"/>

  <g transform="translate(1160 244)">
    <circle cx="72" cy="72" r="58" fill="url(#person)"/>
    <rect x="10" y="134" width="126" height="156" rx="46" fill="#FF8E4F"/>
    <path d="M72 92C97 92 117 113 117 138V152H27V138C27 113 47 92 72 92Z" fill="#0F2036"/>
    <path d="M49 58C55 42 67 31 85 28" stroke="#0F2036" stroke-width="10" stroke-linecap="round"/>
    <path d="M118 65C128 77 133 91 133 108" stroke="#0F2036" stroke-width="9" stroke-linecap="round"/>
    <path d="M84 160L96 186" stroke="#F9F1E3" stroke-width="12" stroke-linecap="round"/>
    <path d="M70 174L83 196" stroke="#F9F1E3" stroke-width="12" stroke-linecap="round"/>
  </g>

  <rect x="1192" y="374" width="172" height="110" rx="22" fill="#0F2036" stroke="rgba(255,255,255,0.16)"/>
  <path d="M1228 410H1328" stroke="#67E4FF" stroke-width="12" stroke-linecap="round"/>
  <path d="M1228 445H1300" stroke="#FFD385" stroke-width="12" stroke-linecap="round"/>
  <path d="M1228 478H1266" stroke="white" stroke-opacity="0.62" stroke-width="12" stroke-linecap="round"/>

  <g transform="translate(924 664)">
    <rect x="0" y="0" width="346" height="84" rx="28" fill="#0F2036" stroke="rgba(255,255,255,0.16)"/>
    <text x="34" y="36" fill="#67E4FF" font-family="Segoe UI, Arial, sans-serif" font-size="22" font-weight="700">Accueil, coordination, devis, facturation</text>
    <text x="34" y="62" fill="#C1D0E3" font-family="Segoe UI, Arial, sans-serif" font-size="20">Role cle dans l'experience client quotidienne</text>
  </g>
</svg>
