<svg width="1600" height="900" viewBox="0 0 1600 900" fill="none" xmlns="http://www.w3.org/2000/svg">
  <defs>
    <linearGradient id="bg" x1="174" y1="106" x2="1398" y2="850" gradientUnits="userSpaceOnUse">
      <stop stop-color="#09111E"/>
      <stop offset="0.52" stop-color="#102544"/>
      <stop offset="1" stop-color="#1D3E73"/>
    </linearGradient>
    <radialGradient id="glowLeft" cx="0" cy="0" r="1" gradientUnits="userSpaceOnUse" gradientTransform="translate(307 250) rotate(31.7) scale(503 344)">
      <stop stop-color="#5AD8FF" stop-opacity="0.42"/>
      <stop offset="1" stop-color="#5AD8FF" stop-opacity="0"/>
    </radialGradient>
    <radialGradient id="glowRight" cx="0" cy="0" r="1" gradientUnits="userSpaceOnUse" gradientTransform="translate(1267 190) rotate(121.5) scale(460 342)">
      <stop stop-color="#F7AA2B" stop-opacity="0.28"/>
      <stop offset="1" stop-color="#F7AA2B" stop-opacity="0"/>
    </radialGradient>
    <linearGradient id="device" x1="833" y1="165" x2="1270" y2="635" gradientUnits="userSpaceOnUse">
      <stop stop-color="#162C51"/>
      <stop offset="1" stop-color="#0B1628"/>
    </linearGradient>
    <linearGradient id="screen" x1="932" y1="204" x2="1198" y2="593" gradientUnits="userSpaceOnUse">
      <stop stop-color="#5AD8FF"/>
      <stop offset="1" stop-color="#255DFF"/>
    </linearGradient>
    <filter id="shadow" x="718" y="129" width="637" height="572" filterUnits="userSpaceOnUse" color-interpolation-filters="sRGB">
      <feFlood flood-opacity="0" result="BackgroundImageFix"/>
      <feColorMatrix in="SourceAlpha" type="matrix" values="0 0 0 0 0 0 0 0 0 0 0 0 0 0 0 0 0 0 127 0" result="hardAlpha"/>
      <feOffset dy="26"/>
      <feGaussianBlur stdDeviation="28"/>
      <feColorMatrix type="matrix" values="0 0 0 0 0.0117647 0 0 0 0 0.0392157 0 0 0 0 0.0823529 0 0 0 0.42 0"/>
      <feBlend mode="normal" in2="BackgroundImageFix" result="effect1_dropShadow_0_1"/>
      <feBlend mode="normal" in="SourceGraphic" in2="effect1_dropShadow_0_1" result="shape"/>
    </filter>
  </defs>

  <rect width="1600" height="900" rx="36" fill="url(#bg)"/>
  <rect width="1600" height="900" rx="36" fill="url(#glowLeft)"/>
  <rect width="1600" height="900" rx="36" fill="url(#glowRight)"/>

  <circle cx="168" cy="162" r="4" fill="#5AD8FF"/>
  <circle cx="1436" cy="714" r="7" fill="#F7AA2B" fill-opacity="0.72"/>
  <circle cx="1368" cy="200" r="10" fill="#5AD8FF" fill-opacity="0.55"/>
  <circle cx="126" cy="706" r="6" fill="#F7AA2B" fill-opacity="0.5"/>

  <path d="M95 674C226 531 413 463 656 470" stroke="rgba(255,255,255,0.14)" stroke-width="2"/>
  <path d="M983 216C1128 194 1272 226 1417 312" stroke="rgba(255,255,255,0.14)" stroke-width="2"/>

  <g opacity="0.22">
    <rect x="96" y="102" width="360" height="138" rx="28" stroke="#5AD8FF"/>
    <rect x="96" y="266" width="230" height="76" rx="22" stroke="#F7AA2B"/>
    <rect x="96" y="364" width="322" height="274" rx="30" stroke="white" stroke-opacity="0.18"/>
  </g>

  <text x="112" y="168" fill="#67E4FF" font-family="Segoe UI, Arial, sans-serif" font-size="26" font-weight="700" letter-spacing="0.22em">RECRUTEMENT TECH</text>
  <text x="112" y="250" fill="#F4F7FB" font-family="Segoe UI, Arial, sans-serif" font-size="72" font-weight="700">Ingenieur IoT</text>
  <text x="112" y="330" fill="#F4F7FB" font-family="Segoe UI, Arial, sans-serif" font-size="72" font-weight="700">&amp; Mobile</text>
  <text x="112" y="404" fill="#C1D0E3" font-family="Segoe UI, Arial, sans-serif" font-size="28">Optimisation, securite et evolution d'un produit smart</text>

  <rect x="112" y="474" width="154" height="52" rx="26" fill="#FF7C4D"/>
  <text x="144" y="508" fill="#FFF7EE" font-family="Segoe UI, Arial, sans-serif" font-size="24" font-weight="700">Flutter</text>

  <rect x="282" y="474" width="132" height="52" rx="26" fill="#14243A" stroke="rgba(255,255,255,0.18)"/>
  <text x="318" y="508" fill="#FCE2AA" font-family="Segoe UI, Arial, sans-serif" font-size="24" font-weight="700">MQTT</text>

  <rect x="430" y="474" width="174" height="52" rx="26" fill="#14243A" stroke="rgba(255,255,255,0.18)"/>
  <text x="467" y="508" fill="#C7F5FF" font-family="Segoe UI, Arial, sans-serif" font-size="24" font-weight="700">Securite</text>

  <g filter="url(#shadow)">
    <rect x="774" y="162" width="524" height="516" rx="44" fill="url(#device)"/>
    <rect x="807" y="196" width="458" height="448" rx="34" fill="#07101C"/>
    <rect x="836" y="224" width="400" height="392" rx="28" fill="url(#screen)"/>
  </g>

  <rect x="868" y="280" width="338" height="212" rx="24" fill="#0D1830" fill-opacity="0.44" stroke="rgba(255,255,255,0.18)"/>
  <path d="M925 385H1036" stroke="#67E4FF" stroke-width="14" stroke-linecap="round"/>
  <path d="M925 430H1122" stroke="white" stroke-opacity="0.85" stroke-width="14" stroke-linecap="round"/>
  <path d="M925 475H1080" stroke="white" stroke-opacity="0.46" stroke-width="14" stroke-linecap="round"/>
  <rect x="1090" y="332" width="82" height="82" rx="22" fill="#142A4D"/>
  <path d="M1129 353C1160 353 1185 379 1185 411C1185 443 1160 468 1129 468C1098 468 1073 443 1073 411C1073 379 1098 353 1129 353Z" stroke="#67E4FF" stroke-width="8"/>
  <path d="M1129 332V490" stroke="#67E4FF" stroke-width="8" stroke-linecap="round"/>
  <path d="M1051 411H1208" stroke="#67E4FF" stroke-width="8" stroke-linecap="round"/>

  <g opacity="0.95">
    <circle cx="756" cy="280" r="18" fill="#0F213B" stroke="#67E4FF" stroke-width="4"/>
    <circle cx="684" cy="448" r="18" fill="#0F213B" stroke="#67E4FF" stroke-width="4"/>
    <circle cx="760" cy="618" r="18" fill="#0F213B" stroke="#67E4FF" stroke-width="4"/>
    <circle cx="1325" cy="350" r="18" fill="#0F213B" stroke="#67E4FF" stroke-width="4"/>
    <circle cx="1360" cy="558" r="18" fill="#0F213B" stroke="#67E4FF" stroke-width="4"/>
    <path d="M773 280H844" stroke="#67E4FF" stroke-width="5" stroke-linecap="round"/>
    <path d="M702 446H812" stroke="#67E4FF" stroke-width="5" stroke-linecap="round"/>
    <path d="M778 615H882" stroke="#67E4FF" stroke-width="5" stroke-linecap="round"/>
    <path d="M1246 350H1307" stroke="#67E4FF" stroke-width="5" stroke-linecap="round"/>
    <path d="M1260 558H1342" stroke="#67E4FF" stroke-width="5" stroke-linecap="round"/>
  </g>

  <g transform="translate(1185 134)">
    <rect x="0" y="0" width="215" height="78" rx="24" fill="#13253E" stroke="rgba(255,255,255,0.18)"/>
    <path d="M40 49C49 34 63 24 80 24C97 24 111 34 120 49" stroke="#67E4FF" stroke-width="7" stroke-linecap="round"/>
    <path d="M52 49C59 39 68 33 80 33C92 33 101 39 108 49" stroke="#67E4FF" stroke-width="7" stroke-linecap="round"/>
    <circle cx="80" cy="53" r="8" fill="#67E4FF"/>
    <path d="M146 29L161 43L182 24" stroke="#F7AA2B" stroke-width="8" stroke-linecap="round" stroke-linejoin="round"/>
    <text x="106" y="60" fill="#F4F7FB" font-family="Segoe UI, Arial, sans-serif" font-size="23" font-weight="700">WiFi securise</text>
  </g>

  <g transform="translate(1110 678)">
    <rect x="0" y="0" width="278" height="86" rx="28" fill="#0E1B2E" stroke="rgba(255,255,255,0.16)"/>
    <text x="36" y="37" fill="#67E4FF" font-family="Segoe UI, Arial, sans-serif" font-size="22" font-weight="700">Application, API, objets connectes</text>
    <text x="36" y="65" fill="#C1D0E3" font-family="Segoe UI, Arial, sans-serif" font-size="20">Produit en production a faire evoluer</text>
  </g>
</svg>
